<svg id="Color" enable-background="new 0 0 24 24" height="512" viewBox="0 0 24 24" width="512" xmlns="http://www.w3.org/2000/svg"><path d="m16.778 8.718c-.142-.142-.366-.227-.534-.218l-8.5.065c-.412.004-.744.338-.744.75v13.935c0 .285.162.546.418.672.254.126.561.097.787-.077l3.795-2.901 3.795 2.901c.133.103.293.155.455.155.113 0 .227-.025.332-.078.256-.126.418-.387.418-.672v-14c0-.2-.08-.392-.222-.532z" fill="#f44336"/><path d="m9.91 13.999c-.255 0-.51-.049-.748-.148-.498-.206-.893-.614-1.082-1.119l-.422-1.124c-.046-.123-.143-.22-.266-.266l-1.124-.422c-.504-.189-.912-.584-1.118-1.082-.207-.498-.197-1.065.026-1.556l.496-1.093c.055-.12.055-.256 0-.376l-.496-1.094c-.223-.491-.233-1.058-.027-1.556s.615-.893 1.12-1.082l1.124-.422c.123-.046.22-.143.266-.266l.421-1.124c.19-.505.584-.913 1.082-1.119.496-.208 1.065-.198 1.557.026l1.094.496c.119.055.256.054.375 0l1.094-.497c.49-.224 1.059-.233 1.557-.026.498.206.893.614 1.082 1.119l.422 1.124c.046.123.143.22.266.266l1.125.422c.504.189.912.583 1.118 1.082.206.498.196 1.065-.026 1.557l-.496 1.093c-.055.12-.055.256 0 .375l.496 1.094c.223.491.232 1.058.026 1.556s-.614.893-1.119 1.082l-1.124.422c-.123.046-.22.143-.266.266l-.422 1.125c-.189.504-.584.913-1.082 1.119-.497.206-1.066.197-1.557-.026l-1.094-.496c-.119-.055-.256-.054-.375-.001l-1.094.497c-.256.116-.533.174-.809.174z" fill="#ffc107"/><path d="m13.25 11.001h-2.5c-.414 0-.75-.336-.75-.75v-1.376c0-1.172.897-2.125 2-2.125.272 0 .5-.286.5-.625 0-.338-.228-.625-.5-.625h-1.25c-.414 0-.75-.335-.75-.75 0-.414.336-.75.75-.75h1.25c1.103 0 2 .953 2 2.125s-.897 2.125-2 2.125c-.271 0-.5.286-.5.625v.625h1.75c.414 0 .75.336.75.75s-.336.751-.75.751z" fill="#ff8f00"/><path d="m7 11.195v12.055c0 .285.162.546.418.672.105.052.218.078.331.078.162 0 .322-.052.456-.154l3.795-2.902v-7.657c-.064 0-.128.014-.187.04l-1.094.497c-.256.116-.533.174-.809.174-.255 0-.51-.049-.748-.148-.498-.206-.893-.614-1.082-1.119l-.422-1.124c-.046-.123-.143-.22-.266-.266z" fill="#d43a2f"/><path d="m12 8.25c-.271 0-.5.286-.5.625v.625h.5zm-2.091-8.249c-.255 0-.509.05-.747.149-.498.206-.892.614-1.082 1.119l-.422 1.125c-.046.122-.142.219-.265.265l-1.124.422c-.505.189-.914.584-1.12 1.082s-.196 1.065.027 1.556l.496 1.094c.055.119.055.256 0 .376l-.496 1.093c-.223.491-.233 1.058-.027 1.556s.614.893 1.118 1.082l.733.275.393.147c.123.046.22.143.266.266l.422 1.124c.189.505.584.913 1.082 1.119.237.099.492.148.747.148.275 0 .553-.058.809-.174l1.094-.497c.06-.027.123-.04.187-.04v-2.287h-1.25c-.414 0-.75-.336-.75-.75v-1.376c0-1.172.897-2.125 2-2.125v-1.25h-1.25c-.414 0-.75-.335-.75-.75 0-.414.336-.75.75-.75h1.25v-3.287c-.064 0-.128-.014-.187-.041l-1.094-.496c-.256-.116-.533-.175-.81-.175z" fill="#dea806"/><path d="m12 6.751c-1.103 0-2 .953-2 2.125v1.375c0 .414.336.75.75.75h1.25v-1.501h-.5v-.625c0-.339.229-.625.5-.625zm0-2.75h-1.25c-.414 0-.75.336-.75.75s.336.75.75.75h1.25z" fill="#de7c00"/></svg>